<svg width="24" height="24" viewBox="0 0 24 24" fill="none" xmlns="http://www.w3.org/2000/svg">
<path d="M14.25 0C14.6642 0 15 0.335786 15 0.75C15 1.16421 15.3358 1.5 15.75 1.5C16.1642 1.5 16.5 1.83579 16.5 2.25V3C16.5 3.41421 16.1642 3.75 15.75 3.75H8.25C7.83579 3.75 7.5 3.41421 7.5 3V2.25C7.5 1.83579 7.83579 1.5 8.25 1.5C8.66421 1.5 9 1.16421 9 0.75C9 0.335786 9.33579 0 9.75 0H14.25Z" fill="#FBFBFE"/>
<path d="M5.25 1.5H6.12803C6.04512 1.73458 6 1.98702 6 2.25V3C6 4.24264 7.00736 5.25 8.25 5.25H15.75C16.9926 5.25 18 4.24264 18 3V2.25C18 1.98702 17.9549 1.73458 17.872 1.5H18.75C19.9926 1.5 21 2.50736 21 3.75V21.75C21 22.9926 19.9926 24 18.75 24H5.25C4.00736 24 3 22.9926 3 21.75V3.75C3 2.50736 4.00736 1.5 5.25 1.5Z" fill="#FBFBFE"/>
</svg>
