<svg width="861" height="819" viewBox="0 0 861 819" fill="none" xmlns="http://www.w3.org/2000/svg">
<path fill-rule="evenodd" clip-rule="evenodd" d="M106.853 188.13C106.853 188.13 751.128 154.012 783.227 206.086C815.326 258.161 852.011 640.639 737.371 663.982C622.731 687.326 85.1105 685.882 75.9388 639.194C66.7671 592.506 42.6555 195.313 106.853 188.13Z" fill="#F0F4FC"/>
<path fill-rule="evenodd" clip-rule="evenodd" d="M480.513 207.865C594.066 207.865 686.119 299.918 686.119 413.471C686.119 527.025 594.066 619.078 480.513 619.078C366.959 619.078 274.907 527.025 274.907 413.471C274.907 299.918 366.959 207.865 480.513 207.865ZM480.513 264.395C398.181 264.395 331.438 331.138 331.438 413.47C331.438 495.803 398.181 562.546 480.513 562.546C562.845 562.546 629.588 495.803 629.588 413.47C629.588 331.138 562.845 264.395 480.513 264.395Z" fill="#03267F"/>
<path fill-rule="evenodd" clip-rule="evenodd" d="M534.777 350.529C534.777 350.529 436.972 331.572 394.248 409.914C365.07 444.758 322.771 452.361 322.771 452.361C322.771 452.361 333.197 536.681 346.798 499.054C389.144 381.901 538.951 492.714 494.581 575.666C551.699 569.772 591.592 546.2 591.592 546.2C514.125 538.008 471.924 357.174 633.752 385.724C633.752 385.724 631.938 369.858 630.578 366.231C629.218 362.604 624.975 308.403 619.082 332.882C614.159 353.348 556.437 354.73 534.777 350.529Z" fill="#03267F"/>
<path fill-rule="evenodd" clip-rule="evenodd" d="M789.961 461.49L807.966 450.897C807.966 450.897 789.523 426.755 783.202 420.632C776.881 414.509 767.786 411.824 767.786 411.824C767.786 411.824 759.934 401.877 754.013 399.594C748.092 397.313 707.321 370.289 707.321 370.289L724.71 417.361L789.961 461.49Z" fill="#ED9088"/>
<path fill-rule="evenodd" clip-rule="evenodd" d="M775.7 569.143C775.7 569.143 783.846 513.328 807.841 450.941C807.841 450.941 750.87 407.897 691.344 393.488C691.344 393.488 646.44 504.066 708.258 568.103L775.7 569.143Z" fill="#FAB8A9"/>
<path fill-rule="evenodd" clip-rule="evenodd" d="M739.353 435.465C739.353 435.465 717 377.852 713.09 363.523C713.09 363.523 690 344.963 681.032 327.892C674.362 315.195 648.524 336.103 684.623 379.321C684.623 379.321 686.194 396.528 682.698 421.578C679.202 446.626 739.353 435.465 739.353 435.465Z" fill="#FAB8A9"/>
<path fill-rule="evenodd" clip-rule="evenodd" d="M705.591 501.271C705.591 501.271 670.26 485.191 653.349 450.165C653.349 450.165 643.286 416.073 618.175 411.454C593.065 406.836 590.448 420.324 592.251 425.46C594.055 430.596 614.665 438.36 633.559 479.036C652.454 519.711 647.947 546.201 708.259 568.104C708.259 568.104 717.272 521.402 705.591 501.271Z" fill="#FAB8A9"/>
<path fill-rule="evenodd" clip-rule="evenodd" d="M718.078 524.494L708.259 568.105L733.676 748.623L733.986 748.573C733.883 748.752 733.774 748.929 733.676 749.107C733.676 749.107 738.639 802.76 798.321 797.061C858.004 791.361 863.817 744.682 860.131 728.019C860.131 728.019 787.21 636.932 775.699 569.141C775.699 569.141 750.253 531.442 718.078 524.494Z" fill="#FAB8A9"/>
<path fill-rule="evenodd" clip-rule="evenodd" d="M218.859 452.943L215.542 497.521L138.613 662.795C138.613 662.795 123.173 712.621 66.7432 705.447C10.3132 698.273 -14.8181 632.835 23.6537 606.229C23.6537 606.229 119.957 540.351 150.725 478.86C150.725 478.86 186.056 450.212 218.859 452.943Z" fill="#FAB8A9"/>
<path fill-rule="evenodd" clip-rule="evenodd" d="M168.462 371.723L154.325 356.342C154.325 356.342 179.004 338.624 186.835 334.609C194.666 330.594 204.149 330.676 204.149 330.676C204.149 330.676 214.56 323.449 220.889 322.991C227.218 322.533 274.094 308.566 274.094 308.566L243.741 348.527L168.462 371.723Z" fill="#ED9088"/>
<path fill-rule="evenodd" clip-rule="evenodd" d="M150.726 478.859C150.726 478.859 159.201 423.094 154.431 356.421C154.431 356.421 221.474 331.851 282.615 335.417C282.615 335.417 293.34 454.282 215.542 497.522L150.726 478.859Z" fill="#FAB8A9"/>
<path fill-rule="evenodd" clip-rule="evenodd" d="M224.457 361.578C224.457 361.578 262.631 312.982 270.548 300.413C270.548 300.413 298.045 289.39 311.599 275.673C321.679 265.471 340.303 293.002 293.175 323.822C293.175 323.822 286.657 339.824 282.701 364.805C278.744 389.787 224.457 361.578 224.457 361.578Z" fill="#FAB8A9"/>
<path fill-rule="evenodd" clip-rule="evenodd" d="M237.573 434.367C237.573 434.367 276.057 429.283 302.441 400.707C302.441 400.707 322.004 371.027 347.371 373.929C372.738 376.829 371.31 390.495 368.088 394.882C364.866 399.27 342.887 400.69 312.959 434.093C283.03 467.496 279.621 494.147 215.543 497.522C215.543 497.522 220.532 450.22 237.573 434.367Z" fill="#FAB8A9"/>
<path fill-rule="evenodd" clip-rule="evenodd" d="M443.925 390.287C443.925 390.287 471.939 373.716 485.353 374.11C498.768 374.504 488.78 411.61 480.514 415.539C472.247 419.468 437.723 404.074 443.925 390.287Z" fill="#FB4548"/>
<path d="M764.175 235.884C807.6 192.459 807.6 122.053 764.175 78.6277C720.751 35.2027 650.345 35.2027 606.92 78.6277C563.495 122.053 563.495 192.459 606.92 235.884C650.345 279.309 720.75 279.309 764.175 235.884Z" fill="#3F35FF"/>
<path fill-rule="evenodd" clip-rule="evenodd" d="M657.051 218.854C657.051 218.854 630.736 131.789 646.754 125.354C662.771 118.921 714.977 109.533 714.977 109.533L713.376 99.0477C712.367 92.4383 752.453 116.389 754.657 117.965C754.657 117.965 725.475 143.578 722.093 144.699C718.71 145.82 719.116 135.261 719.116 135.261C719.116 135.261 671.216 144.12 670.664 149.596C670.113 155.072 682.589 214.479 682.589 214.479C682.589 214.479 655.711 225.165 657.051 218.854Z" fill="white"/>
<path fill-rule="evenodd" clip-rule="evenodd" d="M668.28 61.183C694.809 56.4125 720.761 62.8473 741.271 77.1067C761.782 91.3651 776.855 113.45 781.625 139.978C786.395 166.507 779.96 192.459 765.701 212.969C751.443 233.479 729.358 248.553 702.829 253.323C676.301 258.093 650.35 251.658 629.839 237.399C609.328 223.14 594.256 201.055 589.485 174.527C584.715 147.999 591.15 122.047 605.409 101.537C619.668 81.025 641.752 65.9524 668.28 61.183ZM738.635 80.8973C719.095 67.3134 694.371 61.184 669.097 65.7279C618.55 74.8168 584.942 123.163 594.03 173.71C598.575 198.984 612.934 220.023 632.474 233.607C652.015 247.191 676.738 253.321 702.012 248.776C752.56 239.688 786.169 191.343 777.08 140.795C772.535 115.522 758.176 94.4822 738.635 80.8973Z" fill="white"/>
<path fill-rule="evenodd" clip-rule="evenodd" d="M189.093 130.916L238.129 265.284C243.45 279.865 235.873 296.149 221.291 301.47L86.9226 350.506C72.3409 355.827 56.057 348.251 50.7367 333.669L1.70233 199.3C-3.61888 184.72 3.95734 168.435 18.539 163.114L152.907 114.079C167.488 108.758 183.772 116.335 189.093 130.916Z" fill="#FFBF00"/>
<path fill-rule="evenodd" clip-rule="evenodd" d="M89.1219 306.114C89.1219 306.114 91.1085 288.183 110.036 296.363C124.057 302.422 136.726 295.704 142.975 278.555C149.222 261.405 125.605 251.528 110.658 245.899C95.7123 240.272 96.3529 227.606 103.691 225.264C111.866 222.655 133.312 232.42 139.601 220.435C145.888 208.448 146.771 206.553 146.771 206.553L160.341 212.867L155.695 160.29L113.899 189.609L127.717 196.039C127.717 196.039 125.965 206.871 119.098 206.494C112.23 206.117 87.0684 198.34 78.0315 221.194C68.9945 244.05 92.8516 256.399 99.0439 258.674C117.323 265.387 122.518 271.086 119.83 276.981C118.256 280.433 112.463 281.793 106.552 278.963C88.7048 270.417 80.0191 274.816 70.9871 298.178L89.1219 306.114Z" fill="#03267F"/>
<path fill-rule="evenodd" clip-rule="evenodd" d="M179.726 144.643L222.122 260.817C226.722 273.425 220.172 287.503 207.565 292.104L91.3905 334.499C78.7834 339.101 64.7046 332.55 60.1038 319.942L17.7077 203.768C13.1079 191.159 19.6584 177.082 32.2645 172.481L148.439 130.086C161.047 125.486 175.125 132.035 179.726 144.643ZM177.041 148.809C172.621 136.697 159.094 130.404 146.981 134.823L35.3686 175.554C23.2564 179.974 16.9623 193.5 21.3826 205.612L62.1133 317.225C66.5336 329.337 80.0596 335.63 92.1718 331.211L203.785 290.48C215.897 286.06 222.191 272.534 217.771 260.421L177.041 148.809Z" fill="#03267F"/>
<path fill-rule="evenodd" clip-rule="evenodd" d="M455.088 801.483L349.782 818.131C342.321 819.31 335.333 816.625 330.581 810.754L263.509 727.88C258.757 722.009 257.589 714.613 260.298 707.563L298.533 608.039C301.242 600.99 307.062 596.279 314.523 595.1L419.829 578.451C427.289 577.271 434.279 579.957 439.03 585.827L506.102 668.702C510.854 674.573 512.022 681.967 509.313 689.018L471.078 788.541C468.368 795.592 462.549 800.302 455.088 801.483Z" fill="#FB4548"/>
<path fill-rule="evenodd" clip-rule="evenodd" d="M330.523 745.423C324.951 746.304 320.486 745.385 317.131 742.668C313.774 739.951 311.627 735.632 310.692 729.712L310.032 725.533L320.896 723.815L321.689 728.83C322.437 733.566 324.797 735.62 328.767 734.993C330.718 734.684 332.107 733.876 332.935 732.566C333.763 731.258 333.974 729.316 333.566 726.738C333.081 723.674 331.959 721.086 330.197 718.973C328.435 716.859 325.414 714.463 321.136 711.784C315.74 708.354 311.834 705.099 309.419 702.018C307.004 698.938 305.462 695.272 304.789 691.024C303.875 685.243 304.631 680.538 307.054 676.906C309.479 673.274 313.477 671.019 319.049 670.137C324.55 669.267 328.963 670.194 332.284 672.917C335.606 675.64 337.734 679.961 338.671 685.881L339.15 688.91L328.284 690.628L327.689 686.868C327.293 684.36 326.517 682.609 325.36 681.614C324.203 680.619 322.685 680.271 320.804 680.568C316.973 681.173 315.427 683.809 316.164 688.475C316.582 691.122 317.688 693.482 319.479 695.554C321.27 697.627 324.305 700.003 328.583 702.682C334.05 706.1 337.959 709.374 340.309 712.5C342.659 715.626 344.198 719.487 344.924 724.084C345.871 730.074 345.118 734.904 342.664 738.577C340.212 742.249 336.164 744.531 330.523 745.423ZM353.357 676.492L363.267 739.176L374.758 737.359L364.848 674.675L376.863 672.776L375.211 662.328L339.691 667.944L341.342 678.391L353.357 676.492ZM408.668 733.068C403.027 733.96 398.456 733.04 394.953 730.31C391.452 727.58 389.239 723.289 388.314 717.439L382.236 678.993C381.311 673.143 382.092 668.379 384.58 664.702C387.069 661.025 391.134 658.74 396.775 657.848C402.417 656.956 406.989 657.875 410.49 660.606C413.991 663.336 416.204 667.626 417.129 673.477L423.207 711.923C424.132 717.774 423.351 722.538 420.862 726.215C418.376 729.891 414.311 732.176 408.668 733.068ZM407.017 722.621C410.987 721.994 412.592 719.277 411.833 714.471L405.523 674.562C404.763 669.757 402.399 667.667 398.428 668.295C394.458 668.923 392.853 671.639 393.612 676.445L399.922 716.353C400.683 721.16 403.047 723.249 407.017 722.621ZM422.121 654.911L433.682 728.042L445.174 726.226L440.467 696.451L445.9 695.593C451.611 694.69 455.652 692.48 458.024 688.965C460.395 685.449 461.112 680.73 460.176 674.81L459.036 667.601C458.1 661.681 455.961 657.415 452.622 654.802C449.282 652.188 444.756 651.334 439.045 652.236L422.121 654.911ZM444.247 685.145L438.814 686.005L435.263 663.542L440.696 662.684C442.577 662.387 444.07 662.686 445.175 663.582C446.281 664.478 447.032 666.18 447.428 668.688L448.799 677.359C449.195 679.866 449.006 681.716 448.231 682.909C447.456 684.103 446.128 684.848 444.247 685.145Z" fill="white"/>
<path fill-rule="evenodd" clip-rule="evenodd" d="M449.551 793.35L352.541 808.687C345.669 809.774 339.23 807.3 334.853 801.892L273.066 725.547C268.689 720.139 267.612 713.326 270.107 706.832L305.33 615.15C307.826 608.656 313.187 604.316 320.059 603.23L417.07 587.893C423.942 586.807 430.38 589.281 434.757 594.688L496.544 671.033C500.92 676.442 501.997 683.254 499.502 689.749L464.279 781.431C461.784 787.924 456.422 792.264 449.551 793.35ZM446.715 788.888C453.318 787.844 458.468 783.675 460.866 777.435L494.704 689.359C497.101 683.119 496.066 676.574 491.861 671.378L432.503 598.035C428.298 592.839 422.113 590.463 415.51 591.507L322.315 606.241C315.712 607.284 310.562 611.453 308.164 617.692L274.326 705.77C271.929 712.009 272.964 718.555 277.169 723.75L336.527 797.094C340.732 802.288 346.917 804.665 353.521 803.622L446.715 788.888Z" fill="white"/>
<path d="M586.756 777.337C597.991 775.502 605.611 764.907 603.775 753.672C601.94 742.437 591.345 734.817 580.11 736.652C568.876 738.487 561.256 749.082 563.091 760.317C564.926 771.552 575.521 779.172 586.756 777.337Z" fill="white"/>
<path fill-rule="evenodd" clip-rule="evenodd" d="M632.933 724.02C635.203 724.02 637.056 722.168 637.056 719.897C637.056 717.626 635.204 715.774 632.933 715.774C630.662 715.774 628.81 717.626 628.81 719.897C628.809 722.167 630.661 724.02 632.933 724.02Z" fill="white"/>
<path fill-rule="evenodd" clip-rule="evenodd" d="M826.714 608.587C832.947 608.587 838.03 603.504 838.03 597.271C838.03 591.037 832.947 585.955 826.714 585.955C820.481 585.955 815.397 591.037 815.397 597.271C815.397 603.504 820.481 608.587 826.714 608.587Z" fill="white"/>
<path fill-rule="evenodd" clip-rule="evenodd" d="M537.597 114.91C544.693 114.91 550.48 109.123 550.48 102.027C550.48 94.9312 544.693 89.144 537.597 89.144C530.502 89.144 524.714 94.9312 524.714 102.027C524.715 109.124 530.503 114.91 537.597 114.91Z" fill="white"/>
<path fill-rule="evenodd" clip-rule="evenodd" d="M413.92 114.91C415.339 114.91 416.497 113.752 416.497 112.333C416.497 110.914 415.34 109.756 413.92 109.756C412.5 109.756 411.344 110.914 411.344 112.333C411.344 113.753 412.501 114.91 413.92 114.91Z" fill="white"/>
<path fill-rule="evenodd" clip-rule="evenodd" d="M26.9147 512.738C31.4556 512.738 35.1594 509.034 35.1594 504.492C35.1594 499.95 31.4556 496.248 26.9147 496.248C22.3737 496.248 18.6689 499.951 18.6689 504.492C18.6689 509.033 22.3737 512.738 26.9147 512.738Z" fill="white"/>
</svg>
