<svg width="22" height="22" viewBox="0 0 22 22" fill="none" xmlns="http://www.w3.org/2000/svg">
<path d="M12.7777 0H5.5C3.98122 0 2.75 1.23122 2.75 2.75V19.25C2.75 20.7688 3.98122 22 5.5 22H16.5C18.0188 22 19.25 20.7688 19.25 19.25V6.47227C19.25 6.1076 19.1051 5.75786 18.8473 5.5L13.75 0.402728C13.4921 0.144866 13.1424 0 12.7777 0ZM13.0625 4.8125V2.0625L17.1875 6.1875H14.4375C13.6781 6.1875 13.0625 5.57189 13.0625 4.8125ZM6.1875 12.375C5.8078 12.375 5.5 12.0672 5.5 11.6875C5.5 11.3078 5.8078 11 6.1875 11H15.8125C16.1922 11 16.5 11.3078 16.5 11.6875C16.5 12.0672 16.1922 12.375 15.8125 12.375H6.1875ZM5.5 14.4375C5.5 14.0578 5.8078 13.75 6.1875 13.75H15.8125C16.1922 13.75 16.5 14.0578 16.5 14.4375C16.5 14.8172 16.1922 15.125 15.8125 15.125H6.1875C5.8078 15.125 5.5 14.8172 5.5 14.4375ZM6.1875 17.875C5.8078 17.875 5.5 17.5672 5.5 17.1875C5.5 16.8078 5.8078 16.5 6.1875 16.5H11.6875C12.0672 16.5 12.375 16.8078 12.375 17.1875C12.375 17.5672 12.0672 17.875 11.6875 17.875H6.1875Z" fill="#0433A9"/>
</svg>
