<svg width="79" height="82" viewBox="0 0 79 82" fill="none" xmlns="http://www.w3.org/2000/svg">
<path d="M32.0476 0C27.9631 0 24.652 3.31112 24.652 7.39559V12.326C24.652 16.4105 27.9631 19.7216 32.0476 19.7216H46.8388C50.9233 19.7216 54.2344 16.4105 54.2344 12.326V7.39559C54.2344 3.31112 50.9233 0 46.8388 0H32.0476ZM46.8388 4.9304C48.2003 4.9304 49.304 6.03412 49.304 7.39559V12.326C49.304 13.6875 48.2003 14.7912 46.8388 14.7912H32.0476C30.6861 14.7912 29.5824 13.6875 29.5824 12.326V7.39559C29.5824 6.03412 30.6861 4.9304 32.0476 4.9304H46.8388Z" fill="#0433A9"/>
<path d="M19.7216 10.1606H14.7912C9.34524 10.1606 4.93042 14.5755 4.93042 20.0214V71.7906C4.93042 77.2365 9.34524 81.6514 14.7912 81.6514H64.0951C69.541 81.6514 73.9559 77.2365 73.9559 71.7906V20.0214C73.9559 14.5755 69.541 10.1606 64.0951 10.1606H59.1647V15.091C59.1647 21.8985 53.6462 27.417 46.8388 27.417H32.0476C25.2402 27.417 19.7216 21.8985 19.7216 15.091V10.1606ZM53.5123 46.4166L38.7211 61.208C38.2588 61.6701 37.6318 61.9298 36.978 61.9298C36.3242 61.9298 35.6971 61.6701 35.2348 61.208L27.8393 53.8122C26.8765 52.8495 26.8765 51.2886 27.8393 50.3258C28.802 49.3631 30.3628 49.3631 31.3255 50.3258L36.978 55.9783L50.026 42.9302C50.9888 41.9675 52.5496 41.9675 53.5123 42.9302C54.475 43.893 54.475 45.4539 53.5123 46.4166Z" fill="#0433A9"/>
</svg>
