<svg width="173" height="173" viewBox="0 0 173 173" fill="none" xmlns="http://www.w3.org/2000/svg">
<path d="M37.8438 21.625C34.858 21.625 32.4375 24.0455 32.4375 27.0313V156.781C32.4375 159.767 34.858 162.188 37.8437 162.188H135.156C138.142 162.188 140.562 159.767 140.562 156.781V27.0312C140.562 24.0455 138.142 21.625 135.156 21.625H129.75C126.764 21.625 124.344 19.2045 124.344 16.2188C124.344 13.233 126.764 10.8125 129.75 10.8125H135.156C144.114 10.8125 151.375 18.0739 151.375 27.0312V156.781C151.375 165.739 144.114 173 135.156 173H37.8437C28.8864 173 21.625 165.739 21.625 156.781V27.0313C21.625 18.0739 28.8864 10.8125 37.8438 10.8125H43.25C46.2358 10.8125 48.6562 13.233 48.6562 16.2188C48.6562 19.2045 46.2358 21.625 43.25 21.625H37.8438Z" fill="#03267F"/>
<path d="M108.125 5.40625C108.125 2.42046 105.705 0 102.719 0H70.2812C67.2955 0 64.875 2.42046 64.875 5.40625C64.875 8.39204 62.4545 10.8125 59.4688 10.8125C56.483 10.8125 54.0625 13.233 54.0625 16.2188V21.625C54.0625 24.6108 56.483 27.0312 59.4688 27.0312H113.531C116.517 27.0312 118.938 24.6108 118.938 21.625V16.2188C118.938 13.233 116.517 10.8125 113.531 10.8125C110.545 10.8125 108.125 8.39204 108.125 5.40625Z" fill="#03267F"/>
</svg>
