<svg width="44" height="44" viewBox="0 0 44 44" fill="none" xmlns="http://www.w3.org/2000/svg">
<path d="M9.625 5.5C8.86561 5.5 8.25 6.11561 8.25 6.875V39.875C8.25 40.6344 8.86561 41.25 9.625 41.25H34.375C35.1344 41.25 35.75 40.6344 35.75 39.875V6.875C35.75 6.11561 35.1344 5.5 34.375 5.5H33C32.2406 5.5 31.625 4.88439 31.625 4.125C31.625 3.36561 32.2406 2.75 33 2.75H34.375C36.6532 2.75 38.5 4.59683 38.5 6.875V39.875C38.5 42.1532 36.6532 44 34.375 44H9.625C7.34682 44 5.5 42.1532 5.5 39.875V6.875C5.5 4.59683 7.34682 2.75 9.625 2.75H11C11.7594 2.75 12.375 3.36561 12.375 4.125C12.375 4.88439 11.7594 5.5 11 5.5H9.625Z" fill="#03267F"/>
<path d="M27.5 1.375C27.5 0.615609 26.8844 0 26.125 0H17.875C17.1156 0 16.5 0.615609 16.5 1.375C16.5 2.13439 15.8844 2.75 15.125 2.75C14.3656 2.75 13.75 3.36561 13.75 4.125V5.5C13.75 6.25939 14.3656 6.875 15.125 6.875H28.875C29.6344 6.875 30.25 6.25939 30.25 5.5V4.125C30.25 3.36561 29.6344 2.75 28.875 2.75C28.1156 2.75 27.5 2.13439 27.5 1.375Z" fill="#03267F"/>
</svg>
