<svg width="79" height="79" viewBox="0 0 79 79" fill="none" xmlns="http://www.w3.org/2000/svg">
<path d="M42.0426 5.03113C41.1986 4.96888 40.3505 4.9375 39.5 4.9375V0C40.4719 0 41.4411 0.0358561 42.4058 0.107006L42.0426 5.03113ZM51.9389 7.25343C50.3553 6.64258 48.7288 6.14918 47.0727 5.77728L48.1545 0.959761C50.0472 1.38478 51.906 1.94866 53.7159 2.64677L51.9389 7.25343ZM58.7019 10.7623C57.9948 10.2898 57.2722 9.84476 56.5358 9.42759L58.9695 5.13155C59.8111 5.60833 60.6369 6.11698 61.445 6.65695C62.2532 7.19692 63.0391 7.7652 63.8017 8.36029L60.764 12.2528C60.0968 11.7321 59.4091 11.2348 58.7019 10.7623ZM67.7578 19.5986C66.7805 18.2109 65.7022 16.897 64.5318 15.6677L68.1078 12.2632C69.4454 13.6681 70.6777 15.1696 71.7946 16.7556L67.7578 19.5986ZM71.4316 26.2735C71.1061 25.4878 70.7526 24.7163 70.3721 23.9603L74.7824 21.7404C75.2173 22.6044 75.6213 23.4861 75.9932 24.384C76.3652 25.2819 76.703 26.1911 77.0064 27.1096L72.3181 28.6584C72.0526 27.8548 71.7571 27.0592 71.4316 26.2735ZM74.0521 38.6518C74.0104 36.955 73.8438 35.2635 73.5537 33.5911L78.4185 32.747C78.7501 34.6583 78.9405 36.5914 78.9881 38.5306L74.0521 38.6518ZM73.3984 46.2428C73.5643 45.4087 73.699 44.5708 73.8026 43.7308L78.703 44.3352C78.5846 45.2952 78.4306 46.2528 78.241 47.2061C78.0514 48.1593 77.8272 49.1029 77.5692 50.0351L72.8105 48.7183C73.0363 47.9026 73.2325 47.0769 73.3984 46.2428ZM68.7003 57.9909C69.6083 56.5569 70.4096 55.0579 71.0974 53.5061L75.6113 55.5071C74.8252 57.2804 73.9095 58.9935 72.8717 60.6324L68.7003 57.9909ZM63.9394 63.9394C64.5408 63.338 65.1183 62.7161 65.6711 62.0753L69.4098 65.3004C68.778 66.0328 68.118 66.7435 67.4307 67.4307L63.9394 63.9394Z" fill="#0433A9"/>
<path d="M39.5 4.9375C33.8162 4.9375 28.2201 6.33925 23.2074 9.0186C18.1947 11.6979 13.9201 15.5722 10.7623 20.2981C7.60457 25.024 5.66105 30.4558 5.10394 36.1123C4.54682 41.7687 5.39331 47.4753 7.56842 52.7265C9.74353 57.9777 13.1801 62.6114 17.5738 66.2172C21.9675 69.823 27.1826 72.2895 32.7572 73.3984C38.3318 74.5073 44.0939 74.2242 49.533 72.5742C54.9721 70.9243 59.9203 67.9585 63.9394 63.9394L67.4307 67.4307C62.8375 72.0239 57.1824 75.4135 50.9663 77.2991C44.7501 79.1848 38.1649 79.5083 31.7939 78.241C25.4229 76.9737 19.4628 74.1548 14.4415 70.0339C9.42014 65.913 5.49261 60.6173 3.00677 54.616C0.520928 48.6146 -0.446488 42.0929 0.190213 35.6283C0.826914 29.1638 3.04808 22.956 6.65696 17.555C10.2658 12.1539 15.151 7.72621 20.8798 4.66411C26.6086 1.602 33.0042 0 39.5 0V4.9375Z" fill="#0433A9"/>
<path d="M37.0313 14.8125C38.3947 14.8125 39.5 15.9178 39.5 17.2812V43.0048L55.5374 52.169C56.7212 52.8455 57.1325 54.3535 56.456 55.5373C55.7795 56.7212 54.2715 57.1324 53.0877 56.456L35.8064 46.581C35.0372 46.1414 34.5625 45.3234 34.5625 44.4375V17.2812C34.5625 15.9178 35.6678 14.8125 37.0313 14.8125Z" fill="#0433A9"/>
</svg>
