<svg width="20" height="20" viewBox="0 0 20 20" fill="none" xmlns="http://www.w3.org/2000/svg">
<path d="M11.6161 0H5C3.61929 0 2.5 1.11929 2.5 2.5V17.5C2.5 18.8807 3.61929 20 5 20H15C16.3807 20 17.5 18.8807 17.5 17.5V5.88388C17.5 5.55236 17.3683 5.23442 17.1339 5L12.5 0.366117C12.2656 0.131696 11.9476 0 11.6161 0ZM11.875 4.375V1.875L15.625 5.625H13.125C12.4346 5.625 11.875 5.06536 11.875 4.375ZM5.625 11.25C5.27982 11.25 5 10.9702 5 10.625C5 10.2798 5.27982 10 5.625 10H14.375C14.7202 10 15 10.2798 15 10.625C15 10.9702 14.7202 11.25 14.375 11.25H5.625ZM5 13.125C5 12.7798 5.27982 12.5 5.625 12.5H14.375C14.7202 12.5 15 12.7798 15 13.125C15 13.4702 14.7202 13.75 14.375 13.75H5.625C5.27982 13.75 5 13.4702 5 13.125ZM5.625 16.25C5.27982 16.25 5 15.9702 5 15.625C5 15.2798 5.27982 15 5.625 15H10.625C10.9702 15 11.25 15.2798 11.25 15.625C11.25 15.9702 10.9702 16.25 10.625 16.25H5.625Z" fill="#FBFBFE"/>
</svg>
