<svg width="549" height="549" viewBox="0 0 549 549" fill="none" xmlns="http://www.w3.org/2000/svg">
<g clip-path="url(#clip0_961_7115)">
<path fill-rule="evenodd" clip-rule="evenodd" d="M137.25 68.625C137.25 30.7244 167.974 0 205.875 0H480.375C518.277 0 549 30.7245 549 68.625V343.125C549 381.027 518.277 411.75 480.375 411.75H205.875C167.974 411.75 137.25 381.027 137.25 343.125V68.625ZM205.875 34.3125C186.925 34.3125 171.562 49.6749 171.562 68.625V343.125C171.562 362.076 186.925 377.438 205.875 377.438H480.375C499.326 377.438 514.688 362.076 514.688 343.125V68.625C514.688 49.6749 499.326 34.3125 480.375 34.3125H205.875ZM68.625 171.562C49.6749 171.562 34.3125 186.925 34.3125 205.875V480.375C34.3125 499.326 49.6749 514.688 68.625 514.688H343.125C362.076 514.688 377.438 499.326 377.438 480.375V446.062H411.75V480.375C411.75 518.277 381.027 549 343.125 549H68.625C30.7244 549 0 518.277 0 480.375V205.875C0 167.974 30.7244 137.25 68.625 137.25H102.938V171.562H68.625Z" fill="#BDBDBF"/>
</g>
<defs>
<clipPath id="clip0_961_7115">
<rect width="549" height="549" fill="white"/>
</clipPath>
</defs>
</svg>
