<svg width="25" height="24" viewBox="0 0 25 24" fill="none" xmlns="http://www.w3.org/2000/svg">
<path d="M14.607 1.57558C13.9878 -0.525193 11.0122 -0.525193 10.393 1.57558L10.2428 2.08505C9.8472 3.42735 8.31403 4.06241 7.08512 3.39302L6.61869 3.13896C4.69539 2.09133 2.59133 4.19539 3.63896 6.1187L3.89302 6.58512C4.56241 7.81403 3.92735 9.3472 2.58505 9.74284L2.07558 9.89301C-0.0251933 10.5122 -0.0251926 13.4878 2.07558 14.107L2.58505 14.2572C3.92735 14.6528 4.56241 16.186 3.89302 17.4149L3.63896 17.8813C2.59133 19.8046 4.69538 21.9087 6.61869 20.861L7.08512 20.607C8.31403 19.9376 9.8472 20.5727 10.2428 21.915L10.393 22.4244C11.0122 24.5252 13.9878 24.5252 14.607 22.4244L14.7572 21.915C15.1528 20.5727 16.686 19.9376 17.9149 20.607L18.3813 20.861C20.3046 21.9087 22.4087 19.8046 21.361 17.8813L21.107 17.4149C20.4376 16.186 21.0727 14.6528 22.415 14.2572L22.9244 14.107C25.0252 13.4878 25.0252 10.5122 22.9244 9.89301L22.415 9.74284C21.0727 9.3472 20.4376 7.81403 21.107 6.58512L21.361 6.11869C22.4087 4.19538 20.3046 2.09133 18.3813 3.13896L17.9149 3.39302C16.686 4.06241 15.1528 3.42735 14.7572 2.08505L14.607 1.57558ZM12.5 16.3932C10.0737 16.3932 8.10678 14.4263 8.10678 12C8.10678 9.57369 10.0737 7.60678 12.5 7.60678C14.9263 7.60678 16.8932 9.57369 16.8932 12C16.8932 14.4263 14.9263 16.3932 12.5 16.3932Z" fill="#FBFBFE"/>
</svg>
