<svg width="25" height="24" viewBox="0 0 25 24" fill="none" xmlns="http://www.w3.org/2000/svg">
<path d="M13.5607 2.25007C12.9749 1.66428 12.0251 1.66428 11.4393 2.25007L1.46967 12.2197C1.17678 12.5126 1.17678 12.9875 1.46967 13.2804C1.76256 13.5733 2.23744 13.5733 2.53033 13.2804L12.5 3.31073L22.4697 13.2804C22.7626 13.5733 23.2374 13.5733 23.5303 13.2804C23.8232 12.9875 23.8232 12.5126 23.5303 12.2197L20 8.68941V3.75007C20 3.33586 19.6642 3.00007 19.25 3.00007H17.75C17.3358 3.00007 17 3.33586 17 3.75007V5.68941L13.5607 2.25007Z" fill="#FBFBFE"/>
<path d="M12.5 4.93941L21.5 13.9394V20.2501C21.5 21.4927 20.4926 22.5001 19.25 22.5001H5.75C4.50736 22.5001 3.5 21.4927 3.5 20.2501V13.9394L12.5 4.93941Z" fill="#FBFBFE"/>
</svg>
