<svg width="25" height="24" viewBox="0 0 25 24" fill="none" xmlns="http://www.w3.org/2000/svg">
<path d="M13.5607 2.24989C12.9749 1.6641 12.0251 1.6641 11.4393 2.24989L1.46967 12.2196C1.17678 12.5125 1.17678 12.9873 1.46967 13.2802C1.76256 13.5731 2.23744 13.5731 2.53033 13.2802L12.5 3.31055L22.4697 13.2802C22.7626 13.5731 23.2374 13.5731 23.5303 13.2802C23.8232 12.9873 23.8232 12.5125 23.5303 12.2196L20 8.68923V3.74989C20 3.33567 19.6642 2.99989 19.25 2.99989H17.75C17.3358 2.99989 17 3.33567 17 3.74989V5.68923L13.5607 2.24989Z" fill="#FBFBFE"/>
<path d="M12.5 4.93923L21.5 13.9392V20.2499C21.5 21.4925 20.4926 22.4999 19.25 22.4999H5.75C4.50736 22.4999 3.5 21.4925 3.5 20.2499V13.9392L12.5 4.93923Z" fill="#FBFBFE"/>
</svg>
