<svg width="28" height="20" viewBox="0 0 28 20" fill="none" xmlns="http://www.w3.org/2000/svg">
<path d="M7.15116 4.394C7.6436 3.24499 8.7734 2.5 10.0235 2.5H17.9765C19.2266 2.5 20.3564 3.24499 20.8489 4.394L21.8387 6.70371C21.9328 6.92302 22.1014 7.10192 22.3148 7.20862C22.9382 7.52036 23.3829 8.10246 23.5196 8.78597L23.9394 10.8847C23.9796 11.0865 24 11.2918 24 11.4976V12.0138C24 13.0312 23.5121 13.9422 22.75 14.5106V16.875C22.75 17.2201 22.4701 17.5 22.125 17.5H19.625C19.2799 17.5 19 17.2201 19 16.875V15.2025C17.3855 15.2625 15.5692 15.3125 14 15.3125C12.4308 15.3125 10.6145 15.2625 9 15.2025V16.875C9 17.2201 8.72017 17.5 8.375 17.5H5.875C5.52982 17.5 5.25 17.2201 5.25 16.875V14.5106C4.48791 13.9422 4 13.0312 4 12.0138V11.4976C4 11.2918 4.02033 11.0865 4.06069 10.8847L4.48043 8.78597C4.61713 8.10248 5.06174 7.52036 5.6852 7.20862C5.89861 7.10192 6.0673 6.92302 6.16129 6.70371L7.15116 4.394ZM7.75 12.5C8.44035 12.5 9 11.9403 9 11.25C9 10.5597 8.44035 10 7.75 10C7.05965 10 6.5 10.5597 6.5 11.25C6.5 11.9403 7.05965 12.5 7.75 12.5ZM20.25 12.5C20.9404 12.5 21.5 11.9403 21.5 11.25C21.5 10.5597 20.9404 10 20.25 10C19.5596 10 19 10.5597 19 11.25C19 11.9403 19.5596 12.5 20.25 12.5ZM11.5 10C10.8096 10 10.25 10.5597 10.25 11.25C10.25 11.9403 10.8096 12.5 11.5 12.5H16.5C17.1904 12.5 17.75 11.9403 17.75 11.25C17.75 10.5597 17.1904 10 16.5 10H11.5ZM7.6321 6.48576C7.41197 6.92601 7.76367 7.43994 8.2543 7.40042C9.39008 7.30895 12.4415 7.1875 14 7.1875C15.5585 7.1875 18.6099 7.30895 19.7456 7.40042C20.2362 7.43994 20.588 6.92601 20.3679 6.48576L19.1727 4.09549C19.0669 3.88375 18.8505 3.75 18.6138 3.75H9.38625C9.14953 3.75 8.93311 3.88375 8.82724 4.09549L7.6321 6.48576Z" fill="#FBFBFE"/>
</svg>
