<svg width="79" height="69" viewBox="0 0 79 69" fill="none" xmlns="http://www.w3.org/2000/svg">
<path d="M51.8438 41.8929V18.2708L56.0582 14.064C56.5211 13.6018 56.7812 12.975 56.7812 12.3214V2.46429C56.7812 1.1033 55.6759 0 54.3125 0H46.9062C45.5428 0 44.4375 1.1033 44.4375 2.46429V41.8929H51.8438Z" fill="#0433A9"/>
<path d="M19.75 14.7857H39.5V19.7143H32.8137C36.9139 23.3267 39.5 28.6118 39.5 34.5V64.0714H74.0625V34.5C74.0625 26.3341 67.4306 19.7143 59.25 19.7143V14.7857C70.1575 14.7857 79 23.6121 79 34.5V64.0714C79 66.7934 76.7894 69 74.0625 69H4.9375C2.21059 69 0 66.7934 0 64.0714V34.5C0 23.6121 8.84236 14.7857 19.75 14.7857ZM22.637 35.2715C23.8791 35.8013 24.6875 36.1461 24.6875 34.5C24.6875 31.778 22.4769 29.5714 19.75 29.5714C17.0231 29.5714 14.8125 31.778 14.8125 34.5C14.8125 36.1461 15.6209 35.8013 16.863 35.2715C17.6749 34.9253 18.6721 34.5 19.75 34.5C20.8279 34.5 21.8251 34.9253 22.637 35.2715Z" fill="#0433A9"/>
</svg>
