<svg width="566" height="557" viewBox="0 0 566 557" fill="none" xmlns="http://www.w3.org/2000/svg">
<path d="M128.123 0H113.153V1.81448H128.123V0Z" fill="#0433A9"/>
<path d="M100.206 0H48.8221V1.81448H100.206V0Z" fill="#0433A9"/>
<path d="M38.7572 285.616H405.257C413.547 285.616 419.724 278.857 418.985 270.595L396.701 21.371C395.962 13.1096 388.576 6.35071 380.286 6.35071H13.7881C5.49844 6.35071 -0.679201 13.1096 0.0600035 21.371L22.3436 270.595C23.0809 278.857 30.4693 285.616 38.7572 285.616Z" fill="#0433A9"/>
<path d="M39.9334 285.616H406.433C414.723 285.616 420.901 278.857 420.161 270.595L397.878 21.371C397.139 13.1096 389.752 6.35071 381.462 6.35071H14.9644C6.67471 6.35071 0.497068 13.1096 1.23627 21.371L23.5198 270.595C24.2572 278.857 31.6438 285.616 39.9334 285.616Z" fill="#0433A9"/>
<path opacity="0.2" d="M39.9334 285.616H406.433C414.723 285.616 420.901 278.857 420.161 270.595L397.878 21.371C397.139 13.1096 389.752 6.35071 381.462 6.35071H14.9644C6.67471 6.35071 0.497068 13.1096 1.23627 21.371L23.5198 270.595C24.2572 278.857 31.6438 285.616 39.9334 285.616Z" fill="#01123B"/>
<path d="M382.134 13.861H15.6344C15.2193 13.861 14.8114 13.8773 14.4072 13.9118C5.05246 14.6811 7.20999 28.8812 16.6649 28.8812H383.789C393.244 28.8812 392.862 14.6793 383.37 13.9118C382.961 13.8773 382.549 13.861 382.134 13.861Z" fill="#0433A9"/>
<path d="M22.1615 25.7203C19.7964 25.7203 17.7008 23.8042 17.4914 21.449C17.3858 20.2696 17.7536 19.1573 18.5256 18.3154C19.2939 17.4771 20.3663 17.0162 21.5443 17.0162C23.9094 17.0162 26.0032 18.9323 26.2144 21.2875C26.32 22.4669 25.9522 23.5792 25.182 24.4211C24.4137 25.2594 23.3413 25.7203 22.1615 25.7203ZM21.5461 18.8343C20.8852 18.8343 20.2898 19.0866 19.8711 19.5438C19.4468 20.0047 19.2466 20.6252 19.3066 21.2912C19.4359 22.7337 20.7159 23.9076 22.1633 23.9076C22.8261 23.9076 23.4214 23.6554 23.8402 23.1982C24.2626 22.7373 24.4629 22.1167 24.4028 21.4508C24.2735 20.0083 22.9917 18.8343 21.5461 18.8343Z" fill="#FAFAFA"/>
<path d="M33.916 25.7203C31.5509 25.7203 29.4553 23.8042 29.2459 21.449C29.1403 20.2696 29.5081 19.1573 30.2801 18.3154C31.0484 17.4771 32.1208 17.0162 33.2988 17.0162C35.6639 17.0162 37.7577 18.9323 37.9689 21.2875C38.0745 22.4669 37.7067 23.5792 36.9347 24.4211C36.1664 25.2612 35.094 25.7203 33.916 25.7203ZM33.2988 18.8343C32.6379 18.8343 32.0425 19.0866 31.6237 19.5438C31.1995 20.0047 30.9993 20.6252 31.0593 21.2912C31.1886 22.7337 32.4686 23.9076 33.916 23.9076C34.5769 23.9076 35.1741 23.6554 35.5929 23.1982C36.0153 22.7373 36.2156 22.1167 36.1573 21.4508C36.028 20.0083 34.7462 18.8343 33.2988 18.8343Z" fill="#FAFAFA"/>
<path d="M45.6686 25.7203C43.3053 25.7203 41.2097 23.8042 40.9985 21.449C40.8929 20.2696 41.2607 19.1573 42.0326 18.3154C42.801 17.4789 43.8752 17.0162 45.0532 17.0162C47.4164 17.0162 49.5121 18.9323 49.7233 21.2875C49.8289 22.4669 49.4611 23.5792 48.6891 24.4211C47.9208 25.2612 46.8466 25.7203 45.6686 25.7203ZM45.0532 18.8343C44.3923 18.8343 43.7969 19.0866 43.3763 19.5438C42.9539 20.0047 42.7536 20.6252 42.8119 21.2912C42.9412 22.7337 44.2229 23.9076 45.6686 23.9076C46.3313 23.9076 46.9267 23.6554 47.3454 23.1982C47.7678 22.7373 47.9681 22.1167 47.9099 21.4508C47.7806 20.0083 46.4988 18.8343 45.0532 18.8343Z" fill="#FAFAFA"/>
<path d="M45.6285 260.741H396.288C399.305 260.741 401.534 258.302 401.266 255.295L382.941 50.3408C382.671 47.3342 380.007 44.8955 376.991 44.8955H26.3291C23.3122 44.8955 21.0836 47.3342 21.3513 50.3408L39.6766 255.295C39.9461 258.304 42.6116 260.741 45.6285 260.741Z" fill="white"/>
<path d="M167.422 423.745C172.309 438.609 165.673 450.661 150.743 450.659C233.45 450.659 316.157 450.659 398.864 450.659C413.791 450.659 420.432 438.607 415.544 423.745C332.837 423.747 250.13 423.747 167.422 423.745Z" fill="#263238"/>
<path d="M61.1591 60.043C114.338 181.277 73.2212 302.512 113.408 423.745C118.293 438.609 135.841 450.661 150.743 450.659C165.671 450.659 172.309 438.607 167.422 423.745C241.128 423.745 314.832 423.745 388.536 423.745C348.351 302.51 389.468 181.276 336.287 60.043C244.578 60.043 152.87 60.043 61.1591 60.043Z" fill="#0433A9"/>
<path opacity="0.8" d="M61.1591 60.043C114.338 181.277 73.2212 302.512 113.408 423.745C118.293 438.609 135.841 450.661 150.743 450.659C165.671 450.659 172.309 438.607 167.422 423.745C241.128 423.745 314.832 423.745 388.536 423.745C348.351 302.51 389.468 181.276 336.287 60.043C244.578 60.043 152.87 60.043 61.1591 60.043Z" fill="white"/>
<path d="M178.498 151.977C156.194 151.977 133.891 151.977 111.587 151.977C108.519 129.75 103.776 107.522 96.2695 85.295C118.573 85.295 140.877 85.295 163.18 85.295C170.685 107.522 175.43 129.75 178.498 151.977Z" fill="#0433A9"/>
<path opacity="0.6" d="M358.724 405.199C308.958 405.199 259.191 405.199 209.426 405.199C202.952 380.934 199.374 356.671 197.289 332.406C247.055 332.406 296.82 332.406 346.587 332.406C348.673 356.669 352.249 380.934 358.724 405.199Z" fill="#0433A9"/>
<g opacity="0.8">
<path d="M324.183 92.7C274.418 92.7 224.651 92.7 174.886 92.7C174.117 90.2304 173.318 87.7627 172.486 85.295C222.251 85.295 272.016 85.295 321.783 85.295C322.615 87.7627 323.416 90.2323 324.183 92.7Z" fill="#0433A9"/>
<path d="M329.532 111.961C279.767 111.961 230 111.961 180.235 111.961C179.627 109.491 178.991 107.023 178.325 104.556C228.09 104.556 277.857 104.556 327.622 104.556C328.289 107.023 328.924 109.493 329.532 111.961Z" fill="#0433A9"/>
<path d="M300.135 131.221C261.564 131.221 222.99 131.221 184.419 131.221C183.951 128.754 183.457 126.284 182.938 123.817C221.51 123.817 260.082 123.817 298.655 123.817C299.174 126.284 299.665 128.754 300.135 131.221Z" fill="#0433A9"/>
</g>
<g opacity="0.2">
<path d="M339.812 176.003C290.045 176.003 240.28 176.003 190.514 176.003C190.367 174.377 190.216 172.749 190.054 171.124C239.821 171.124 289.586 171.124 339.351 171.124C339.513 172.749 339.664 174.375 339.812 176.003Z" fill="#0433A9"/>
<path d="M340.82 188.691C291.055 188.691 241.288 188.691 191.523 188.691C191.41 187.066 191.29 185.438 191.166 183.812C240.931 183.812 290.698 183.812 340.464 183.812C340.587 185.44 340.708 187.066 340.82 188.691Z" fill="#0433A9"/>
<path d="M300.122 201.382C264.182 201.382 228.239 201.382 192.297 201.382C192.211 199.756 192.12 198.129 192.024 196.503C227.966 196.503 263.907 196.503 299.849 196.503C299.946 198.13 300.037 199.756 300.122 201.382Z" fill="#0433A9"/>
<path d="M342.177 214.074C292.412 214.074 242.645 214.074 192.88 214.074C192.816 212.449 192.747 210.821 192.676 209.195C242.441 209.195 292.208 209.195 341.973 209.195C342.044 210.821 342.113 212.447 342.177 214.074Z" fill="#0433A9"/>
<path d="M342.616 226.765C292.851 226.765 243.084 226.765 193.318 226.765C193.269 225.139 193.218 223.511 193.166 221.885C242.931 221.885 292.698 221.885 342.463 221.885C342.516 223.511 342.567 225.137 342.616 226.765Z" fill="#0433A9"/>
<path d="M227.742 239.455C216.379 239.455 205.018 239.455 193.655 239.455C193.617 237.827 193.577 236.202 193.535 234.576C204.898 234.576 216.259 234.576 227.622 234.576C227.664 236.202 227.704 237.827 227.742 239.455Z" fill="#0433A9"/>
<path d="M343.233 252.146C293.468 252.146 243.701 252.146 193.936 252.146C193.901 250.52 193.868 248.892 193.832 247.267C243.597 247.267 293.364 247.267 343.129 247.267C343.164 248.892 343.198 250.518 343.233 252.146Z" fill="#0433A9"/>
<path d="M343.503 264.836C293.737 264.836 243.97 264.836 194.205 264.836C194.169 263.21 194.134 261.583 194.099 259.957C243.865 259.957 293.632 259.957 343.397 259.957C343.432 261.583 343.466 263.209 343.503 264.836Z" fill="#0433A9"/>
<path d="M343.805 277.526C294.04 277.526 244.272 277.526 194.507 277.526C194.465 275.899 194.423 274.273 194.383 272.647C244.149 272.647 293.916 272.647 343.681 272.647C343.721 274.273 343.763 275.899 343.805 277.526Z" fill="#0433A9"/>
<path d="M344.185 290.217C294.42 290.217 244.653 290.217 194.888 290.217C194.833 288.591 194.779 286.964 194.729 285.338C244.495 285.338 294.262 285.338 344.027 285.338C344.078 286.964 344.131 288.589 344.185 290.217Z" fill="#0433A9"/>
<path d="M344.69 302.908C294.925 302.908 245.157 302.908 195.392 302.908C195.318 301.282 195.248 299.654 195.181 298.028C244.946 298.028 294.713 298.028 344.479 298.028C344.546 299.654 344.615 301.28 344.69 302.908Z" fill="#0433A9"/>
<path d="M259.08 315.598C238.075 315.598 217.069 315.598 196.064 315.598C195.966 313.972 195.871 312.345 195.783 310.719C216.789 310.719 237.794 310.719 258.8 310.719C258.889 312.345 258.982 313.97 259.08 315.598Z" fill="#0433A9"/>
</g>
<path d="M504.36 97.3523C505.995 99.3428 507.382 101.112 508.786 103.041C510.184 104.933 511.55 106.837 512.888 108.765C515.553 112.628 518.095 116.577 520.477 120.657C522.838 124.755 525.154 128.886 527.173 133.255C529.238 137.592 531.148 142.048 532.668 146.795L533.252 148.562L533.398 149.003L533.622 149.765C533.789 150.341 533.899 150.887 533.999 151.438C534.387 153.641 534.319 155.579 534.124 157.326C533.68 160.81 532.673 163.564 531.599 166.103C529.422 171.135 526.66 175.23 523.828 179.156C518.033 186.917 511.657 193.571 504.527 199.82L497.119 193.062C501.998 185.864 506.849 178.331 510.801 170.924C512.786 167.244 514.494 163.454 515.542 160.066C516.05 158.395 516.324 156.786 516.287 155.779C516.282 155.289 516.205 154.949 516.14 154.944C516.123 154.944 516.12 154.938 516.109 154.978C516.09 154.957 516.141 155.085 516.08 154.937L515.93 154.586L515.333 153.189C512.167 145.737 507.875 138.325 503.287 131.098C500.982 127.478 498.544 123.911 496.085 120.36C493.663 116.84 490.972 113.242 488.558 110.016L504.36 97.3523Z" fill="#FFC2BA"/>
<path d="M501.694 190.787L489.499 194.313L499.218 205.644C499.218 205.644 507.438 201.765 506.608 195.361L501.694 190.787Z" fill="#FFC2BA"/>
<path d="M480.754 204.058L491.813 212.833L499.218 205.644L489.499 194.315L480.754 204.058Z" fill="#FFC2BA"/>
<path d="M437.03 38.8842C437.03 39.9584 436.459 40.8312 435.754 40.8312C435.049 40.8312 434.478 39.9602 434.478 38.8842C434.478 37.8082 435.049 36.9373 435.754 36.9373C436.459 36.9373 437.03 37.81 437.03 38.8842Z" fill="#263238"/>
<path d="M436.559 40.8313C436.559 40.8313 434.106 47.0332 431.404 50.0271C433.312 51.8034 436.559 50.9906 436.559 50.9906V40.8313Z" fill="#A02724"/>
<path d="M440.853 32.9274C440.724 32.9274 440.595 32.8893 440.484 32.8077C438.192 31.1619 436.005 31.9748 435.983 31.9839C435.657 32.1091 435.289 31.9476 435.164 31.6228C435.038 31.298 435.2 30.9315 435.526 30.8063C435.641 30.7627 438.381 29.7412 441.225 31.7843C441.509 31.9875 441.573 32.3831 441.369 32.6661C441.245 32.8367 441.05 32.9274 440.853 32.9274Z" fill="#263238"/>
<path d="M471.851 51.2808C469.932 61.0318 468.018 78.9008 474.864 85.4075C474.864 85.4075 472.19 95.3001 454.008 95.3001C434.015 95.3001 444.453 85.4093 444.453 85.4093C455.365 82.8128 455.082 74.7438 453.182 67.1684L471.851 51.2808Z" fill="#FFC2BA"/>
<path d="M477.483 88.8025C478.916 85.6707 480.494 82.0871 477.23 80.9657C473.639 79.7301 453.983 78.4708 447.206 80.7897C440.43 83.1086 442.35 89.4593 442.35 89.4593L477.483 88.8025Z" fill="#0433A9"/>
<path d="M540.69 518.502C539.645 519.386 538.496 520.085 537.668 519.903C537.32 519.827 536.87 519.566 536.704 518.753C536.617 518.324 536.712 517.922 536.985 517.55C538.177 515.938 542.629 515.483 542.818 515.463C542.942 515.45 543.062 515.512 543.124 515.621C543.186 515.728 543.179 515.864 543.106 515.964C542.691 516.534 541.742 517.613 540.69 518.502ZM537.766 517.644C537.658 517.735 537.567 517.829 537.495 517.927C537.329 518.15 537.274 518.381 537.325 518.629C537.444 519.21 537.715 519.268 537.804 519.288C538.727 519.488 540.817 517.738 542.123 516.192C540.785 516.396 538.693 516.86 537.766 517.644Z" fill="#0433A9"/>
<path d="M543.057 516.02C543.017 516.052 542.97 516.078 542.917 516.089C541.375 516.41 537.438 515.909 536.69 514.594C536.555 514.354 536.404 513.871 536.921 513.313C537.256 512.95 537.691 512.761 538.212 512.752C540.219 512.714 542.961 515.441 543.075 515.557C543.157 515.639 543.188 515.758 543.154 515.871C543.137 515.929 543.103 515.982 543.057 516.02ZM537.489 513.641C537.453 513.672 537.418 513.704 537.386 513.741C537.105 514.044 537.2 514.211 537.24 514.283C537.682 515.06 540.415 515.644 542.139 515.55C541.291 514.793 539.509 513.36 538.223 513.385C537.93 513.389 537.688 513.474 537.489 513.641Z" fill="#0433A9"/>
<path d="M440.395 544.074C438.68 544.074 437.021 543.838 436.466 543.07C436.271 542.802 436.118 542.343 436.491 541.689C436.701 541.323 437.039 541.074 437.496 540.951C439.721 540.347 444.397 543.003 444.595 543.116C444.71 543.181 444.772 543.312 444.75 543.44C444.728 543.571 444.63 543.673 444.499 543.7C443.645 543.869 441.995 544.074 440.395 544.074ZM438.276 541.488C438.053 541.488 437.846 541.51 437.662 541.561C437.371 541.64 437.167 541.784 437.043 542.003C436.819 542.395 436.899 542.589 436.981 542.702C437.604 543.564 440.985 543.582 443.472 543.233C442.23 542.597 439.838 541.488 438.276 541.488Z" fill="#0433A9"/>
<path d="M444.437 543.705C444.393 543.705 444.349 543.696 444.308 543.678C442.693 542.956 439.495 540.075 439.739 538.567C439.796 538.213 440.049 537.772 440.919 537.685C441.566 537.62 442.157 537.801 442.676 538.226C444.379 539.617 444.739 543.208 444.752 543.361C444.763 543.473 444.714 543.582 444.621 543.647C444.568 543.685 444.502 543.705 444.437 543.705ZM441.174 538.302C441.112 538.302 441.049 538.305 440.983 538.311C440.413 538.369 440.377 538.592 440.364 538.667C440.216 539.57 442.39 541.836 444.038 542.823C443.867 541.775 443.39 539.626 442.272 538.714C441.937 538.438 441.575 538.302 441.174 538.302Z" fill="#0433A9"/>
<path d="M459.144 543.39H445.77L444.437 512.52H457.812L459.144 543.39Z" fill="#FFC2BA"/>
<path d="M556.556 512.128L543.616 515.497L529.281 487.322L542.223 483.954L556.556 512.128Z" fill="#FFC2BA"/>
<path d="M542.609 513.961L554.067 504.271C554.484 503.919 555.09 503.903 555.527 504.231L565.233 511.562C566.24 512.322 566.256 513.834 565.279 514.632C561.22 517.947 559.077 519.355 554.039 523.617C550.94 526.239 541.597 535.241 537.316 538.861C533.13 542.401 528.885 538.736 530.312 536.872C536.712 528.515 540.888 520.369 541.486 515.988C541.593 515.195 541.999 514.476 542.609 513.961Z" fill="#263238"/>
<path d="M445.857 541.846H460.464C461.01 541.846 461.484 542.225 461.602 542.757L464.244 554.605C464.517 555.834 463.581 556.998 462.32 556.977C457.05 556.888 449.436 556.579 442.814 556.579C435.071 556.579 431.688 557 422.606 557C417.115 557 415.591 551.468 417.889 550.967C428.353 548.686 433.593 548.441 442.634 542.885C443.617 542.281 444.702 541.846 445.857 541.846Z" fill="#263238"/>
<path d="M427.2 115.007C422.749 122.857 418.095 130.28 413.099 137.674C408.096 145.028 402.832 152.249 397.044 159.255C396.336 160.133 395.573 160.999 394.828 161.866L393.708 163.167L393.149 163.817L392.212 164.807C389.654 167.389 387.09 168.932 384.63 170.176C379.718 172.617 375.052 173.914 370.418 174.956C361.149 176.928 352.213 177.601 342.982 177.413L341.98 167.455C350.099 165.275 358.429 162.855 365.937 159.948C369.653 158.471 373.269 156.818 375.989 154.998C377.318 154.095 378.391 153.126 378.804 152.505L380.343 150.4C380.953 149.56 381.572 148.74 382.165 147.871C386.994 141.045 391.64 133.909 396.179 126.676C400.729 119.485 405.264 112.093 409.636 104.911L427.2 115.007Z" fill="#FFC2BA"/>
<path d="M499.921 88.4214C512.456 91.2865 526.834 125.348 526.834 125.348L501.656 142.546C501.656 142.546 492.117 129.247 485.026 114.368C477.595 98.7785 487.103 85.4928 499.921 88.4214Z" fill="#263238"/>
<path opacity="0.3" d="M490.938 110.141L502.845 141.729L501.661 142.545C501.661 142.545 496.509 135.342 490.938 125.616V110.141Z" fill="#01123B"/>
<path d="M424.988 89.1072C424.988 89.1072 410.752 105.133 424.196 204.321C445.751 204.321 485.248 204.321 495.737 204.321C496.23 193.376 489.33 139.987 499.921 88.4195C499.921 88.4195 487.658 85.9663 475.971 85.4056C466.829 84.9665 453.595 84.6762 445.56 85.4074C434.965 86.3709 424.988 89.1072 424.988 89.1072Z" fill="#263238"/>
<path opacity="0.3" d="M432.93 117.783C432.693 118.074 431.128 134.168 418.801 148.303C418.51 141.916 418.401 136.182 418.419 131.047L432.93 117.783Z" fill="#01123B"/>
<path d="M439.098 99.9143C440.863 112.536 415.908 144.779 415.908 144.779L390.833 127.58C390.833 127.58 397.785 109.81 409.497 98.167C422.869 84.8723 437.179 86.1769 439.098 99.9143Z" fill="#263238"/>
<path d="M342.785 167.342L328.775 165.653L329.161 182.676C329.161 182.676 340.196 183.62 346.195 175.974L342.785 167.342Z" fill="#FFC2BA"/>
<path d="M314.786 169.804L320.241 183.582L329.161 182.674L328.775 165.653L314.786 169.804Z" fill="#FFC2BA"/>
<path opacity="0.2" d="M444.441 512.529L445.187 529.884H458.567L457.821 512.529H444.441Z" fill="#01123B"/>
<path opacity="0.2" d="M542.23 483.962L529.283 487.331L537.225 502.927L549.624 498.481L542.23 483.962Z" fill="#01123B"/>
<path d="M473.014 36.6052C472.201 49.8092 472.397 57.5788 465.706 64.3559C455.639 74.5497 439.286 68.5038 436.123 55.3234C433.278 43.4604 435.087 23.8585 448.056 18.6038C460.834 13.4271 473.828 23.4013 473.014 36.6052Z" fill="#FFC2BA"/>
<path d="M449.092 42.7673C442.101 41.3556 444.641 32.9727 446.361 30.5105C444.034 30.0659 443.326 26.6384 445.047 25.1251C442.113 25.1251 434.703 24.6207 435.12 15.9529C435.537 7.28331 440.999 8.29216 443.024 13.2312C444.238 8.69497 449.8 3.35133 457.387 5.26742C464.974 7.1817 458.296 11.0139 458.296 11.0139C458.296 11.0139 474.864 7.68794 472.559 16.1543C479.725 16.5571 490.16 23.1564 484.9 28.8793C488.021 35.0049 487.529 39.1964 483.585 40.8294C482.225 48.2089 474.365 62.3237 468.397 62.3237C463.541 62.3256 449.496 55.67 449.092 42.7673Z" fill="#263238"/>
<path d="M455.055 40.1961C454.478 43.6127 452.528 46.6774 450.372 48.588C447.13 51.4603 444.319 49.1559 444.222 45.224C444.135 41.6839 445.719 35.9248 449.451 34.5494C453.131 33.1922 455.714 36.2877 455.055 40.1961Z" fill="#FFC2BA"/>
<path d="M449.573 204.323C449.573 204.323 464.752 306.192 473.086 344.356C482.211 386.149 528.648 497.966 528.648 497.966L551.949 490.478C551.949 490.478 518.419 389.524 513.212 348.144C507.561 303.236 495.735 204.323 495.735 204.323H449.573Z" fill="#0433A9"/>
<path d="M523.697 493.049C523.597 493.081 529.043 501.165 529.043 501.165L555.223 492.573L552.117 484.784L523.697 493.049Z" fill="#263238"/>
<path opacity="0.3" d="M459.166 240.618C476.718 244.047 474.861 309.278 472.749 342.828C467.687 319.113 460.277 273.478 455.215 241.09C456.381 240.509 457.692 240.328 459.166 240.618Z" fill="#01123B"/>
<path d="M424.194 204.323C424.194 204.323 417.856 303.987 419.311 344.637C420.824 386.918 440.14 525.361 440.14 525.361H462.799C462.799 525.361 459.134 389.389 460.142 347.865C461.242 302.595 471.223 204.325 471.223 204.325H424.194V204.323Z" fill="#0433A9"/>
<path d="M435.779 516.365C435.674 516.365 437.057 525.74 437.057 525.74H464.619L465.364 517.374L435.779 516.365Z" fill="#263238"/>
</svg>
