<svg width="480" height="480" viewBox="0 0 480 480" fill="none" xmlns="http://www.w3.org/2000/svg">
<path d="M285 0C293.284 0 300 6.71574 300 15C300 23.2843 306.717 30 315 30C323.283 30 330 36.7158 330 45V60C330 68.2842 323.283 75 315 75H165C156.716 75 150 68.2842 150 60V45C150 36.7158 156.716 30 165 30C173.284 30 180 23.2843 180 15C180 6.71574 186.716 0 195 0H285Z" fill="#BDBDBF"/>
<path d="M90 75C90 66.7158 96.7158 60 105 60H120C128.284 60 135 53.2842 135 45C135 36.7158 128.284 30 120 30H105C80.1471 30 60 50.1471 60 75V435C60 459.852 80.1471 480 105 480H375C399.852 480 420 459.852 420 435V75C420 50.1471 399.852 30 375 30H360C351.717 30 345 36.7158 345 45C345 53.2842 351.717 60 360 60H375C383.283 60 390 66.7158 390 75V435C390 443.283 383.283 450 375 450H105C96.7158 450 90 443.283 90 435V75Z" fill="#BDBDBF"/>
<path d="M255 195C255 186.716 248.284 180 240 180C231.716 180 225 186.716 225 195V240H180C171.716 240 165 246.716 165 255C165 263.284 171.716 270 180 270H225V315C225 323.283 231.716 330 240 330C248.284 330 255 323.283 255 315V270H300C308.283 270 315 263.284 315 255C315 246.716 308.283 240 300 240H255V195Z" fill="#BDBDBF"/>
</svg>
