<svg width="134" height="134" viewBox="0 0 134 134" fill="none" xmlns="http://www.w3.org/2000/svg">
<path d="M107.649 1.22649C106.013 -0.40883 103.362 -0.40883 101.727 1.22649L87.9376 15.0155L118.985 46.0626L132.774 32.2735C134.409 30.6382 134.409 27.9868 132.774 26.3515L107.649 1.22649Z" fill="#FBFBFE"/>
<path d="M113.063 51.9846L82.0155 20.9376L27.5781 75.375H29.3125C31.6252 75.375 33.5 77.2498 33.5 79.5625V83.75H37.6875C40.0002 83.75 41.875 85.6248 41.875 87.9375V92.125H46.0625C48.3752 92.125 50.25 93.9998 50.25 96.3125V100.5H54.4375C56.7502 100.5 58.625 102.375 58.625 104.688V106.422L113.063 51.9846Z" fill="#FBFBFE"/>
<path d="M50.5151 114.532C50.3437 114.075 50.25 113.58 50.25 113.062V108.875H46.0625C43.7498 108.875 41.875 107 41.875 104.688V100.5H37.6875C35.3748 100.5 33.5 98.6252 33.5 96.3125V92.125H29.3125C26.9998 92.125 25.125 90.2502 25.125 87.9375V83.75H20.9375C20.4205 83.75 19.9253 83.6563 19.4681 83.485L17.9766 84.9765C17.5756 85.3775 17.2602 85.8558 17.0496 86.3823L0.299626 128.257C-0.322497 129.813 0.0421253 131.589 1.22661 132.774C2.4111 133.958 4.18751 134.323 5.74282 133.7L47.6178 116.95C48.1444 116.74 48.6226 116.425 49.0236 116.024L50.5151 114.532Z" fill="#FBFBFE"/>
</svg>
