<svg width="552" height="552" viewBox="0 0 552 552" fill="none" xmlns="http://www.w3.org/2000/svg">
<path d="M276.001 312.225C323.635 312.225 362.251 273.61 362.251 225.975C362.251 178.341 323.635 139.725 276.001 139.725C228.366 139.725 189.751 178.341 189.751 225.975C189.751 273.61 228.366 312.225 276.001 312.225Z" fill="#0433A9"/>
<path d="M34.5 34.5C15.4462 34.5 0 49.9462 0 69V448.5C0 467.554 15.4462 483 34.5 483H51.75C61.2769 483 69 475.277 69 465.75C69 456.223 76.7231 448.5 86.25 448.5C95.7769 448.5 103.5 456.223 103.5 465.75C103.5 475.277 111.223 483 120.75 483H431.25C440.777 483 448.5 475.277 448.5 465.75C448.5 456.223 456.223 448.5 465.75 448.5C475.277 448.5 483 456.223 483 465.75C483 475.277 490.723 483 500.25 483H517.5C536.554 483 552 467.554 552 448.5V103.5C552 84.4462 536.554 69 517.5 69L231.395 69L207 44.6048C200.53 38.1348 191.755 34.5 182.605 34.5H34.5ZM34.5 69L182.605 69L207 93.3952C213.47 99.8652 222.245 103.5 231.395 103.5H517.5V448.5H514.555C507.451 428.4 488.282 414 465.75 414C452.734 414 440.84 418.805 431.746 426.739C410.075 387.235 364.155 345 276.001 345C187.845 345 141.926 387.236 120.255 426.74C111.161 418.806 99.2665 414 86.25 414C63.7177 414 44.5489 428.4 37.4447 448.5H34.5V69Z" fill="#0433A9"/>
</svg>
