<svg width="198" height="198" viewBox="0 0 198 198" fill="none" xmlns="http://www.w3.org/2000/svg">
<path d="M25.2135 39.906C24.9073 38.9931 24.75 38.0652 24.75 37.125C24.75 23.456 57.9929 12.375 99 12.375C140.007 12.375 173.25 23.456 173.25 37.125C173.25 38.0652 173.093 38.9931 172.786 39.906L151.947 164.944C149.958 176.878 139.632 185.625 127.534 185.625H70.4664C58.3676 185.625 48.0422 176.878 46.0531 164.944L25.2135 39.906ZM147.589 31.3641C135.723 27.4088 118.544 24.75 99 24.75C79.4564 24.75 62.2766 27.4088 50.4106 31.3641C44.5111 33.3306 40.5822 35.4022 38.3545 37.125C40.5822 38.8478 44.5111 40.9194 50.4106 42.8859C62.2766 46.8413 79.4564 49.5 99 49.5C118.544 49.5 135.723 46.8413 147.589 42.8859C153.489 40.9194 157.418 38.8478 159.646 37.125C157.418 35.4022 153.489 33.3306 147.589 31.3641Z" fill="#E3E3E6"/>
</svg>
